# xmcd
#
# Track frame offsets:
#	150
#	18050
#	36737
#	53611
#	70343
#	89737
#	101156
#	118149
#	138951
#	159517
#
# Disc length: 2431 seconds
#
# Revision: 0
# Processed by: cddbd v1.5.2PL0 Copyright (c) Steve Scherf et al.
# Submitted via: EZCDAudioConverter 1.1.0.1
#
DISCID=8a097d0a
DTITLE=Frida Ånnevik - Ville ord
DYEAR=2013
DGENRE=
TTITLE0=A til Å
TTITLE1=Lillebror
TTITLE2=Hu som han vil ha
TTITLE3=Skyggeløs
TTITLE4=Livet på glass
TTITLE5=Så hardt så hardt så hardt så
TTITLE6=Brå sving
TTITLE7=Natta Oslo
TTITLE8=Fuglen
TTITLE9=Lyset
EXTD=
EXTT0=
EXTT1=
EXTT2=
EXTT3=
EXTT4=
EXTT5=
EXTT6=
EXTT7=
EXTT8=
EXTT9=
PLAYORDER=
